<svg width="40" height="40" viewBox="0 0 40 40" fill="none" xmlns="http://www.w3.org/2000/svg">
<path fill-rule="evenodd" clip-rule="evenodd" d="M2.5 6.875C2.5 6.37772 2.69754 5.90081 3.04917 5.54917C3.40081 5.19754 3.87772 5 4.375 5H35.625C35.8712 5 36.115 5.0485 36.3425 5.14273C36.57 5.23695 36.7767 5.37506 36.9508 5.54917C37.1249 5.72328 37.263 5.92998 37.3573 6.15747C37.4515 6.38495 37.5 6.62877 37.5 6.875C37.5 7.12123 37.4515 7.36505 37.3573 7.59253C37.263 7.82002 37.1249 8.02672 36.9508 8.20083C36.7767 8.37494 36.57 8.51305 36.3425 8.60727C36.115 8.7015 35.8712 8.75 35.625 8.75H4.375C3.87772 8.75 3.40081 8.55246 3.04917 8.20083C2.69754 7.84919 2.5 7.37228 2.5 6.875V6.875ZM2.5 19.375C2.5 18.8777 2.69754 18.4008 3.04917 18.0492C3.40081 17.6975 3.87772 17.5 4.375 17.5H35.625C36.1223 17.5 36.5992 17.6975 36.9508 18.0492C37.3025 18.4008 37.5 18.8777 37.5 19.375C37.5 19.8723 37.3025 20.3492 36.9508 20.7008C36.5992 21.0525 36.1223 21.25 35.625 21.25H4.375C3.87772 21.25 3.40081 21.0525 3.04917 20.7008C2.69754 20.3492 2.5 19.8723 2.5 19.375V19.375ZM4.375 30C3.87772 30 3.40081 30.1975 3.04917 30.5492C2.69754 30.9008 2.5 31.3777 2.5 31.875C2.5 32.3723 2.69754 32.8492 3.04917 33.2008C3.40081 33.5525 3.87772 33.75 4.375 33.75H35.625C36.1223 33.75 36.5992 33.5525 36.9508 33.2008C37.3025 32.8492 37.5 32.3723 37.5 31.875C37.5 31.3777 37.3025 30.9008 36.9508 30.5492C36.5992 30.1975 36.1223 30 35.625 30H4.375Z" fill="white"/>
</svg>
