<svg width="40" height="40" viewBox="0 0 40 40" fill="none" xmlns="http://www.w3.org/2000/svg">
<path d="M36.5983 22.865V35.1633H29.4683V23.6883C29.4683 20.805 28.4367 18.8383 25.8567 18.8383C23.8867 18.8383 22.7133 20.165 22.1983 21.4467C22.01 21.905 21.9617 22.5433 21.9617 23.185V35.1633H14.8283C14.8283 35.1633 14.925 15.73 14.8283 13.715H21.9617V16.755L21.915 16.825H21.9617V16.755C22.9083 15.2967 24.6 13.2117 28.3883 13.2117C33.08 13.2117 36.5983 16.2783 36.5983 22.865V22.865ZM7.36834 3.37668C4.93 3.37668 3.33334 4.97668 3.33334 7.08168C3.33334 9.14001 4.88334 10.7883 7.275 10.7883H7.32167C9.81 10.7883 11.355 9.14001 11.355 7.08168C11.3117 4.97668 9.81167 3.37668 7.37 3.37668H7.36834ZM3.75667 35.1633H10.8867V13.715H3.75667V35.1633Z" fill="white"/>
</svg>
